# xmcd CD database file
#
# Track frame offsets:
#	150
#	27880
#	65400
#	90717
#	118815
#	139115
#	163895
#	177970
#	215385
#	244780
#	259662
#
# Disc length: 3719 seconds
#
# Revision: 1
# Processed by: cddbd v1.5PL3 Copyright (c) Steve Scherf et al.
# Submitted via: CDex 1.51
#
DISCID=9b0e850b
DTITLE=Andile Yenana - We Used To Dance
DYEAR=1900
DGENRE=Jazz
TTITLE0=Wicked Whispers
TTITLE1=Thembisa - The People
TTITLE2=No Lights
TTITLE3=The Source
TTITLE4=Mhlekazi's Dance (Radio Edit)
TTITLE5=Oasis
TTITLE6=The Finale
TTITLE7=Wish You Sunshine
TTITLE8=Blues For Nick
TTITLE9=We Pray
TTITLE10=Thembisa - The People (Radion Edit)
EXTD=
EXTT0=
EXTT1=
EXTT2=
EXTT3=
EXTT4=
EXTT5=
EXTT6=
EXTT7=
EXTT8=
EXTT9=
EXTT10=
PLAYORDER=
